<svg width="651" height="836" viewBox="0 0 651 836" fill="none" xmlns="http://www.w3.org/2000/svg">
<g opacity="0.5">
<path d="M1120.74 1H594.502C552.14 1 525.504 11.05 506.752 30.9029C506.389 31.2832 506.03 31.6731 505.671 32.0629C473.912 66.254 452.214 133.41 423.989 179.6C378.411 254.172 314.909 261.873 263.998 214.903C242.639 195.203 223.871 163.132 206.555 128.209C189.061 92.9241 173.42 54.9869 152.126 32.0629C151.767 31.6731 151.404 31.2928 151.044 30.9029C132.292 11.05 107.767 1 66.2922 1H-334.045" stroke="#77C400" stroke-miterlimit="10"/>
<path d="M1120.72 21.3282H607.928C607.795 21.3282 593.186 21.3092 593.053 21.2902C557.578 18.0575 532.907 27.4324 514.72 40.4395C511.327 42.8641 508.172 45.6024 505.202 48.5309C504.839 48.8922 504.48 49.2535 504.121 49.6148C472.406 81.6285 450.713 145.162 422.927 188.119C419.474 193.453 415.923 198.397 412.284 202.971C397.054 222.072 380.25 234.338 362.805 240.68C346.708 246.537 329.892 246.489 313.282 242.8C313.165 242.772 313.06 242.743 312.947 242.724C296.172 238.921 279.812 231.219 264.715 218.44C252.156 207.81 240.496 193.396 229.531 176.424C222.127 164.957 214.994 152.426 208.055 139.409C190.666 106.749 174.888 71.3027 153.444 50.0046C153.081 49.6433 152.718 49.2915 152.355 48.9302C133.401 30.5891 108.686 19.5597 67.4454 21.3282C67.3809 21.3282 60.4254 21.3282 60.3609 21.3282H-334.025" stroke="#74BF00" stroke-width="1.02" stroke-miterlimit="10"/>
<path d="M1120.7 41.6566H606.526C606.259 41.6566 591.876 41.609 591.61 41.59C556.292 38.3097 531.496 46.7529 513.168 58.6856C509.779 60.8914 506.628 63.4681 503.659 66.1874C503.3 66.5202 502.936 66.853 502.577 67.1953C470.907 97.0222 449.217 156.942 421.872 196.667C418.475 201.602 414.985 206.146 411.414 210.33C396.471 227.796 379.994 238.445 362.835 243.675C347.028 248.495 330.289 247.012 313.671 243.409C313.558 243.38 313.465 243.361 313.352 243.333C296.573 239.624 280.31 233.397 265.447 221.977C253.073 212.479 241.591 199.833 230.803 184.43C223.525 174.019 216.464 162.561 209.565 150.6C192.282 120.555 176.366 87.6092 154.773 67.9274C154.406 67.5946 154.043 67.2619 153.672 66.9386C134.532 49.9952 109.619 39.8405 68.6048 41.6376C68.4757 41.6376 61.6291 41.6566 61.5 41.6566H-334.008" stroke="#71BA00" stroke-width="1.05" stroke-miterlimit="10"/>
<path d="M1120.68 61.9849H605.117C604.713 61.9849 590.565 61.9183 590.161 61.8803C555.001 58.5525 530.088 66.0734 511.614 76.9126C508.225 78.8998 505.082 81.3148 502.113 83.8249C501.754 84.1292 501.391 84.443 501.035 84.7567C469.409 112.397 447.72 168.704 420.822 205.196C417.477 209.721 414.052 213.877 410.55 217.67C395.893 233.511 379.751 242.534 362.871 246.651C347.354 250.435 330.692 247.516 314.062 244.008C313.953 243.979 313.872 243.96 313.763 243.932C296.976 240.318 280.805 235.555 266.184 225.514C253.988 217.138 242.692 206.261 232.081 192.445C224.924 183.089 217.944 172.707 211.086 161.81C193.907 134.379 177.854 103.935 156.112 85.8787C155.745 85.5744 155.374 85.2702 155.002 84.9754C135.665 69.4868 110.567 60.1593 69.7781 61.9754C69.5844 61.9754 62.8469 62.0039 62.6532 62.0039H-333.988" stroke="#6EB600" stroke-width="1.07" stroke-miterlimit="10"/>
<path d="M1120.66 82.3131H603.712C603.176 82.3131 589.253 82.2275 588.716 82.1705C553.713 78.7856 528.687 85.3937 510.06 95.149C506.675 96.9175 503.532 99.1519 500.563 101.472C500.204 101.757 499.845 102.042 499.486 102.328C467.904 127.79 446.218 180.475 419.76 213.724C416.472 217.851 413.103 221.607 409.674 225.01C395.303 239.216 379.496 246.622 362.894 249.627C347.676 252.375 331.083 248.02 314.444 244.607C314.339 244.578 314.271 244.559 314.162 244.531C297.37 241.013 281.285 237.723 266.906 229.042C254.879 221.778 243.776 212.678 233.347 200.442C226.311 192.15 219.412 182.842 212.59 172.992C195.516 148.176 179.326 120.231 157.439 103.792C157.067 103.516 156.696 103.24 156.321 102.965C136.782 88.9307 111.502 80.421 70.9394 82.2656C70.6812 82.2751 64.0526 82.2941 63.7944 82.2941H-333.969" stroke="#6BB100" stroke-width="1.1" stroke-miterlimit="10"/>
<path d="M1120.64 102.641H602.306C601.636 102.641 587.939 102.527 587.269 102.461C552.419 99.0283 527.293 104.724 508.504 113.376C505.123 114.935 501.984 116.989 499.015 119.109C498.656 119.366 498.297 119.632 497.938 119.889C466.4 143.165 444.719 192.236 418.701 222.253C415.465 225.971 412.161 229.337 408.8 232.351C394.716 244.92 379.251 250.72 362.92 252.603C348 254.324 331.471 248.524 314.829 245.206C314.724 245.187 314.668 245.158 314.567 245.13C297.771 241.707 281.758 239.881 267.638 232.579C255.768 226.437 244.867 219.115 234.62 208.457C227.704 201.221 220.882 192.987 214.104 184.202C197.139 162 180.808 136.566 158.771 121.743C158.396 121.496 158.021 121.239 157.646 121.001C137.909 108.422 112.439 100.73 72.1067 102.594C71.784 102.613 65.2643 102.632 64.9415 102.632H-333.947" stroke="#68AC00" stroke-width="1.12" stroke-miterlimit="10"/>
<path d="M1120.62 122.979H600.897C600.094 122.979 586.623 122.846 585.82 122.77C551.128 119.29 525.896 124.082 506.946 131.622C503.573 132.963 500.435 134.855 497.465 136.766C497.106 136.994 496.747 137.241 496.388 137.47C464.895 158.568 443.214 204.017 417.643 230.801C414.464 234.119 411.22 237.086 407.928 239.719C394.13 250.663 379.013 254.837 362.948 255.607C348.331 256.302 331.866 249.066 315.212 245.833C315.111 245.814 315.066 245.786 314.966 245.767C298.162 242.439 282.218 242.087 268.359 236.144C256.639 231.115 245.952 225.571 235.882 216.491C229.092 210.311 222.338 203.189 215.604 195.421C198.724 175.939 182.288 152.778 160.09 139.704C159.715 139.485 159.336 139.257 158.956 139.048C139.014 127.933 113.367 121.059 73.2601 122.941C72.8727 122.96 66.4579 122.989 66.0747 122.989H-333.932" stroke="#66A700" stroke-width="1.15" stroke-miterlimit="10"/>
<path d="M1120.61 143.307H599.496C598.556 143.307 585.319 143.155 584.379 143.06C549.844 139.533 524.516 143.431 505.4 149.859C502.031 150.99 498.893 152.701 495.923 154.403C495.564 154.613 495.205 154.822 494.85 155.04C463.401 173.952 441.724 215.788 416.593 239.339C413.471 242.258 410.287 244.825 407.064 247.069C393.552 256.378 378.786 258.945 362.983 258.593C348.677 258.27 332.269 249.579 315.606 246.442C315.51 246.423 315.477 246.394 315.38 246.375C298.573 243.142 282.681 244.274 269.101 239.681C257.522 235.764 247.057 231.999 237.168 224.497C230.499 219.372 223.826 213.334 217.133 206.612C200.358 189.764 183.784 169.065 161.441 157.627C161.062 157.436 160.682 157.237 160.299 157.056C140.155 147.405 114.326 141.339 74.4455 143.25C73.9936 143.269 67.6878 143.307 67.2399 143.307H-333.912" stroke="#63A300" stroke-width="1.17" stroke-miterlimit="10"/>
<path d="M1120.58 163.636H598.088C597.015 163.636 584.003 163.465 582.93 163.35C548.552 159.766 523.127 162.79 503.842 168.086C500.482 169.008 497.343 170.548 494.374 172.041C494.014 172.222 493.655 172.412 493.3 172.602C461.896 189.327 440.219 227.54 415.532 247.868C412.461 250.378 409.343 252.555 406.184 254.409C392.959 262.082 378.548 263.052 363.003 261.569C349.007 260.228 332.655 250.083 315.981 247.031C315.884 247.012 315.868 246.984 315.771 246.965C298.96 243.827 283.112 246.451 269.814 243.209C258.365 240.413 248.125 238.474 238.422 232.503C231.87 228.471 225.278 223.48 218.625 217.813C201.955 203.598 185.244 185.371 162.752 175.568C162.368 175.397 161.985 175.236 161.602 175.074C141.248 166.887 115.246 161.63 75.5907 163.569C75.0783 163.598 68.8773 163.636 68.3649 163.636H-333.893" stroke="#609E00" stroke-width="1.2" stroke-miterlimit="10"/>
<path d="M1120.57 183.964H596.681C595.475 183.964 582.689 183.774 581.487 183.641C547.267 180.009 521.753 182.158 502.29 186.322C498.938 187.035 495.799 188.395 492.83 189.688C492.47 189.84 492.115 190.011 491.756 190.173C460.396 204.72 438.723 239.311 414.48 256.406C411.466 258.517 408.408 260.295 405.318 261.759C392.379 267.806 378.327 267.169 363.036 264.555C349.351 262.206 333.056 250.597 316.374 247.64C316.281 247.621 316.277 247.602 316.184 247.573C299.364 244.531 283.553 248.667 270.554 246.746C259.221 245.072 249.228 244.911 239.702 240.509C233.271 237.533 226.76 233.625 220.147 229.004C203.586 217.423 186.73 201.659 164.092 193.501C163.709 193.358 163.322 193.225 162.934 193.092C142.375 186.379 116.195 181.92 76.762 183.878C76.1851 183.907 70.093 183.955 69.5161 183.955H-333.871" stroke="#5D9900" stroke-width="1.22" stroke-miterlimit="10"/>
<path d="M1120.55 204.292H595.273C593.933 204.292 581.374 204.083 580.038 203.941C545.971 200.261 520.373 201.544 500.733 204.559C497.388 205.072 494.249 206.251 491.28 207.335C490.921 207.468 490.566 207.611 490.207 207.744C458.891 220.104 437.222 251.082 413.418 264.944C410.457 266.646 407.464 268.035 404.442 269.109C391.79 273.521 378.101 271.296 363.056 267.531C349.69 264.184 333.443 251.101 316.748 248.239C316.66 248.22 316.664 248.201 316.575 248.182C299.751 245.234 283.964 250.891 271.268 250.292C260.04 249.76 250.305 251.357 240.961 248.533C234.655 246.622 228.22 243.789 221.644 240.223C205.187 231.276 188.194 217.984 165.411 211.452C165.024 211.338 164.632 211.224 164.245 211.129C143.476 205.899 117.118 202.239 77.9154 204.216C77.2739 204.245 71.2908 204.292 70.6453 204.292H-333.855" stroke="#5A9400" stroke-width="1.24" stroke-miterlimit="10"/>
<path d="M1120.53 224.621H593.868C592.395 224.621 580.066 224.392 578.593 224.231C544.684 220.504 519 220.931 499.183 222.786C495.846 223.099 492.707 224.088 489.734 224.972C489.375 225.077 489.02 225.191 488.665 225.305C457.394 235.479 435.724 262.843 412.365 273.473C409.46 274.776 406.527 275.774 403.574 276.459C391.212 279.302 377.886 275.432 363.088 270.516C350.044 266.18 333.842 251.614 317.139 248.847C317.054 248.828 317.07 248.809 316.986 248.79C300.158 245.938 284.383 253.145 272.005 253.829C260.874 254.447 251.409 257.794 242.239 256.539C236.054 255.693 229.7 253.934 223.164 251.414C206.82 245.101 189.678 234.281 166.75 229.384C166.359 229.299 165.967 229.213 165.572 229.146C144.593 225.391 118.062 222.529 79.0847 224.535C78.3787 224.573 72.5045 224.621 71.7944 224.621H-333.836" stroke="#578F00" stroke-width="1.27" stroke-miterlimit="10"/>
<path d="M1120.51 244.949H592.461C590.851 244.949 578.752 244.702 577.146 244.521C543.394 240.737 517.63 240.337 497.627 241.022C494.298 241.136 491.159 241.944 488.186 242.619C487.827 242.705 487.472 242.791 487.117 242.876C455.882 250.72 434.225 274.614 411.309 282.011C408.461 282.905 405.588 283.514 402.704 283.808C390.624 285.025 377.678 279.587 363.117 273.502C350.397 268.187 334.238 252.127 317.524 249.456C317.439 249.437 317.471 249.418 317.386 249.399C300.551 246.641 284.784 255.436 272.733 257.376C261.686 259.154 252.5 264.241 243.507 264.555C237.447 264.764 231.17 264.089 224.67 262.615C208.435 258.935 191.152 250.587 168.074 247.326C167.679 247.269 167.288 247.212 166.888 247.164C145.699 244.892 118.995 242.819 80.2439 244.854C79.4733 244.892 73.704 244.949 72.9334 244.949H-333.814" stroke="#548B00" stroke-width="1.29" stroke-miterlimit="10"/>
<path d="M1120.49 265.277H591.057C589.314 265.277 577.44 265.011 575.701 264.811C542.102 260.979 516.261 259.753 496.073 259.249C492.752 259.163 489.614 259.791 486.64 260.257C486.281 260.314 485.926 260.38 485.571 260.447C454.385 266.095 432.724 286.385 410.251 290.54C407.456 291.035 404.644 291.244 401.832 291.149C390.039 290.73 377.467 283.732 363.145 276.478C350.751 270.202 334.633 252.641 317.91 250.055C317.83 250.036 317.874 250.017 317.793 249.998C300.954 247.335 285.183 257.737 273.463 260.903C262.489 263.87 253.593 270.668 244.781 272.56C238.847 273.834 232.646 274.234 226.187 273.815C210.065 272.77 192.632 266.894 169.413 265.258C169.018 265.23 168.619 265.201 168.219 265.182C146.82 264.402 119.943 263.119 81.4174 265.163C80.5823 265.211 74.9219 265.268 74.0868 265.268H-333.799" stroke="#518600" stroke-width="1.32" stroke-miterlimit="10"/>
<path d="M1120.47 285.605H589.648C587.772 285.605 576.128 285.33 574.252 285.111C540.811 281.232 514.889 279.197 494.519 277.495C491.207 277.219 488.068 277.647 485.09 277.904C484.735 277.932 484.376 277.98 484.021 278.018C452.879 281.479 431.222 298.261 409.19 299.078C406.45 299.183 403.699 298.983 400.955 298.498C389.445 296.454 377.257 287.906 363.168 279.463C351.101 272.237 335.024 253.154 318.293 250.654C318.216 250.635 318.273 250.616 318.192 250.597C301.348 248.029 285.569 260.076 274.188 264.44C262.807 268.805 254.685 277.105 246.048 280.566C240.238 282.896 234.118 284.379 227.695 285.006C211.682 286.585 194.108 283.2 170.74 283.19C170.341 283.19 169.941 283.19 169.538 283.19C147.929 283.903 120.878 283.4 82.5787 285.472C81.679 285.52 76.1276 285.586 75.2279 285.586H-333.779" stroke="#4E8100" stroke-width="1.34" stroke-miterlimit="10"/>
<path d="M1120.45 305.934H588.245C586.236 305.934 574.819 305.639 572.809 305.401C539.525 301.474 513.527 298.641 492.967 295.722C489.667 295.256 486.524 295.494 483.547 295.541C483.192 295.541 482.837 295.56 482.481 295.579C451.388 296.854 429.727 310.022 408.142 307.607C405.455 307.303 402.768 306.713 400.093 305.839C388.87 302.168 377.061 292.08 363.206 282.439C351.47 274.272 335.429 253.658 318.686 251.253C318.609 251.234 318.678 251.215 318.605 251.205C301.757 248.733 285.962 262.472 274.924 267.977C263.885 273.483 255.788 283.533 247.324 288.581C241.635 291.966 235.596 294.524 229.209 296.216C213.309 300.419 195.586 299.516 172.073 301.142C171.669 301.17 171.266 301.189 170.862 301.237C149.04 303.443 121.819 303.718 83.7461 305.82C82.7818 305.877 77.3393 305.943 76.375 305.943H-333.758" stroke="#4B7C00" stroke-width="1.37" stroke-miterlimit="10"/>
<path d="M1120.43 326.272H586.837C584.69 326.272 573.503 325.958 571.36 325.701C538.229 321.717 512.158 318.104 491.409 313.968C488.117 313.312 484.974 313.36 481.997 313.198C481.642 313.179 481.287 313.169 480.932 313.16C449.882 312.247 428.221 321.803 407.08 316.155C404.45 315.451 401.824 314.462 399.217 313.207C388.276 307.911 376.854 296.302 363.23 285.444C351.824 276.354 335.815 254.191 319.068 251.88C318.996 251.861 319.076 251.852 319.004 251.833C302.148 249.456 286.337 264.916 275.649 271.543C264.962 278.17 256.877 289.998 248.594 296.616C243.031 301.056 237.068 304.698 230.721 307.436C214.934 314.253 197.062 315.851 173.408 319.093C173.004 319.15 172.597 319.198 172.189 319.264C150.157 322.972 122.759 324.018 84.9153 326.148C83.8865 326.205 78.553 326.281 77.5242 326.281H-333.738" stroke="#497800" stroke-width="1.39" stroke-miterlimit="10"/>
<path d="M1120.41 346.6H585.428C583.149 346.6 572.187 346.277 569.911 346.001C536.938 341.969 510.79 337.586 489.851 332.205C486.567 331.358 483.428 331.206 480.447 330.845C480.092 330.797 479.737 330.769 479.382 330.731C448.381 327.631 426.716 333.574 406.019 324.693C403.441 323.59 400.879 322.202 398.341 320.557C387.682 313.626 376.652 300.524 363.253 288.429C352.179 278.436 336.206 254.704 319.447 252.489C319.378 252.47 319.471 252.46 319.403 252.441C302.543 250.159 286.711 267.388 276.371 275.08C266.031 282.772 257.966 296.426 249.856 304.622C244.418 310.127 238.536 314.833 232.222 318.637C216.548 328.069 198.526 332.167 174.726 337.035C174.319 337.12 173.907 337.196 173.5 337.291C151.254 342.511 123.686 344.327 86.0687 346.467C84.9754 346.533 79.7507 346.6 78.6574 346.6H-333.723" stroke="#467300" stroke-width="1.41" stroke-miterlimit="10"/>
<path d="M1120.4 366.928H584.029C581.617 366.928 570.885 366.586 568.476 366.291C535.66 362.212 509.432 357.068 488.311 350.432C485.039 349.405 481.897 349.053 478.911 348.482C478.556 348.416 478.201 348.359 477.85 348.292C446.893 343.006 425.224 345.335 404.979 333.222C402.458 331.71 399.952 329.932 397.483 327.897C387.111 319.331 376.464 304.745 363.295 291.405C352.551 280.519 336.615 255.208 319.848 253.088C319.783 253.069 319.888 253.059 319.82 253.04C302.955 250.853 287.108 269.889 277.115 278.607C266.435 287.925 259.072 302.844 251.141 312.627C245.827 319.178 240.022 324.969 233.748 329.828C218.187 341.874 200.02 348.473 176.071 354.967C175.66 355.081 175.248 355.186 174.837 355.309C152.381 362.041 124.64 364.618 87.2481 366.785C86.0902 366.852 80.9705 366.928 79.8166 366.928H-333.701" stroke="#436E00" stroke-width="1.44" stroke-miterlimit="10"/>
<path d="M1120.38 387.256H582.621C580.075 387.256 569.569 386.905 567.028 386.581C534.364 382.455 508.064 376.569 486.753 368.668C483.49 367.461 480.347 366.909 477.361 366.129C477.006 366.034 476.651 365.958 476.3 365.873C445.392 358.399 423.719 357.116 403.918 341.77C401.449 339.859 399.008 337.681 396.607 335.257C386.517 325.064 376.257 309.014 363.315 294.4C352.902 282.639 337.002 255.731 320.222 253.706C320.158 253.687 320.279 253.677 320.214 253.658C303.342 251.567 287.483 272.446 277.832 282.164C267.209 292.86 260.153 309.29 252.403 320.652C247.21 328.259 241.485 335.124 235.248 341.038C219.8 355.69 201.484 364.798 177.394 372.909C176.978 373.051 176.563 373.184 176.147 373.337C153.481 381.58 125.567 384.917 88.4013 387.114C87.1789 387.19 82.168 387.266 80.9496 387.266H-333.682" stroke="#406900" stroke-width="1.46" stroke-miterlimit="10"/>
<path d="M1120.36 407.585H581.212C578.529 407.585 568.253 407.223 565.578 406.872C533.073 402.688 506.691 396.08 485.195 386.895C481.94 385.507 478.797 384.756 475.811 383.767C475.456 383.653 475.105 383.539 474.75 383.434C443.89 373.783 422.213 368.877 402.86 350.298C400.447 347.978 398.067 345.411 395.735 342.597C385.927 330.769 376.055 313.274 363.342 297.376C353.26 284.759 337.396 256.235 320.609 254.305C320.548 254.295 320.678 254.276 320.617 254.267C303.741 252.27 287.873 275.032 278.562 285.701C267.999 297.814 261.25 315.718 253.673 328.668C248.606 337.329 242.957 345.269 236.76 352.248C221.421 369.514 202.96 381.133 178.724 390.86C178.309 391.031 177.889 391.193 177.47 391.364C154.594 401.129 126.506 405.217 89.5666 407.442C88.2796 407.518 83.3777 407.604 82.0947 407.604H-333.662" stroke="#3D6400" stroke-width="1.49" stroke-miterlimit="10"/>
<path d="M1120.34 427.913H579.805C576.989 427.913 566.939 427.533 564.131 427.171C531.779 422.94 505.321 415.619 483.64 405.141C480.392 403.572 477.249 402.621 474.259 401.414C473.904 401.271 473.553 401.138 473.198 401.005C442.383 389.167 420.706 380.639 401.796 358.837C399.436 356.117 397.12 353.151 394.857 349.947C385.336 336.483 375.838 317.562 363.364 300.362C353.604 286.899 337.785 256.758 320.986 254.904C320.929 254.894 321.07 254.875 321.014 254.866C304.134 252.964 288.262 277.628 279.285 289.238C268.792 302.796 262.336 322.145 254.937 336.673C249.991 346.391 244.423 355.404 238.263 363.439C223.033 383.31 204.43 397.439 180.045 408.783C179.626 408.982 179.206 409.172 178.782 409.372C155.697 420.658 127.436 425.507 90.7179 427.742C89.3704 427.827 84.5734 427.913 83.2218 427.913H-333.645" stroke="#3A6000" stroke-width="1.51" stroke-miterlimit="10"/>
<path d="M1120.32 448.241H578.401C575.452 448.241 565.632 447.851 562.686 447.462C530.491 443.183 503.949 435.158 482.09 423.368C478.85 421.619 475.707 420.468 472.718 419.051C472.363 418.88 472.012 418.728 471.661 418.566C440.894 404.552 419.212 392.391 400.747 367.356C398.443 364.228 396.184 360.871 393.993 357.287C384.754 342.188 375.636 321.86 363.399 303.329C353.963 289.038 338.188 257.252 321.38 255.493C321.324 255.484 321.481 255.465 321.425 255.455C304.536 253.649 288.677 280.252 280.019 292.756C269.606 307.797 263.433 328.544 256.216 344.66C251.394 355.433 245.903 365.511 239.783 374.62C224.662 397.088 205.914 413.746 181.388 426.705C180.964 426.924 180.541 427.143 180.117 427.38C156.822 440.188 128.387 445.788 91.8953 448.051C90.4832 448.137 85.7952 448.232 84.3791 448.232H-333.625" stroke="#375B00" stroke-width="1.54" stroke-miterlimit="10"/>
<path d="M1120.3 468.57H576.992C573.91 468.57 564.316 468.17 561.238 467.752C529.196 463.416 502.572 454.707 480.532 441.595C477.3 439.674 474.157 438.315 471.168 436.689C470.817 436.499 470.462 436.318 470.111 436.128C439.388 419.936 417.707 404.152 399.689 375.885C397.438 372.357 395.243 368.592 393.121 364.627C384.168 347.893 375.422 326.176 363.427 306.305C354.309 291.196 338.583 257.756 321.767 256.092C321.715 256.083 321.884 256.073 321.832 256.054C304.939 254.343 289.092 282.905 280.753 296.293C270.432 312.846 264.53 334.971 257.49 352.675C252.79 364.494 247.379 375.657 241.295 385.821C226.283 410.893 207.394 430.062 182.719 444.647C182.295 444.894 181.868 445.142 181.44 445.408C157.935 459.746 129.327 466.088 93.0607 468.379C91.5841 468.474 87.0049 468.57 85.5243 468.57H-333.605" stroke="#345600" stroke-width="1.56" stroke-miterlimit="10"/>
<path d="M1120.28 488.898H575.588C572.372 488.898 563.004 488.489 559.793 488.042C527.908 483.659 501.196 474.265 478.978 459.832C475.754 457.74 472.612 456.171 469.622 454.336C469.271 454.117 468.916 453.908 468.565 453.699C437.891 435.329 416.206 415.914 398.631 384.423C396.437 380.487 394.302 376.332 392.249 371.977C383.583 353.598 375.199 330.522 363.455 309.29C354.652 293.374 338.978 258.27 322.15 256.701C322.101 256.691 322.283 256.682 322.231 256.663C305.334 255.046 289.515 285.586 281.474 299.83C271.263 317.923 265.611 341.399 258.752 360.681C254.173 373.555 248.843 385.792 242.8 397.012C227.896 424.69 208.866 446.378 184.042 462.57C183.614 462.846 183.182 463.121 182.755 463.407C159.044 479.266 130.254 486.369 94.218 488.679C92.6768 488.774 88.2067 488.869 86.6614 488.869H-333.59" stroke="#315100" stroke-width="1.59" stroke-miterlimit="10"/>
<path d="M1120.26 509.226H574.181C570.828 509.226 561.69 508.808 558.346 508.342C526.614 503.911 499.817 493.851 477.422 478.068C474.206 475.805 471.064 474.027 468.07 471.983C467.719 471.745 467.364 471.507 467.013 471.27C436.383 450.723 414.698 427.675 397.568 392.961C395.425 388.626 393.356 384.071 391.371 379.327C382.991 359.312 374.962 334.876 363.476 312.276C354.98 295.56 339.366 258.783 322.53 257.309C322.486 257.3 322.676 257.29 322.631 257.281C305.727 255.76 289.948 288.287 282.202 303.386C272.111 323.048 266.701 347.836 260.024 368.716C255.566 382.645 250.317 395.947 244.31 408.241C229.511 438.524 210.34 462.732 185.374 480.54C184.943 480.844 184.511 481.149 184.079 481.462C160.163 498.862 131.195 506.697 95.3853 509.026C93.7796 509.131 89.4142 509.226 87.8085 509.226H-333.568" stroke="#2E4C00" stroke-width="1.61" stroke-miterlimit="10"/>
<path d="M1120.24 529.564H572.776C569.29 529.564 560.378 529.136 556.901 528.642C525.327 524.163 498.437 513.448 475.872 496.314C472.665 493.88 469.522 491.893 466.528 489.639C466.177 489.373 465.826 489.116 465.475 488.86C434.89 466.135 413.237 439.38 396.522 401.518C394.44 396.764 392.427 391.83 390.511 386.695C382.418 365.045 374.736 339.26 363.516 315.28C355.326 297.776 339.773 259.316 322.925 257.937C322.881 257.927 323.087 257.918 323.042 257.908C306.134 256.482 290.403 291.006 282.935 306.942C272.986 328.183 267.798 354.282 261.299 376.74C256.966 391.725 251.789 406.101 245.826 419.451C231.133 452.33 211.824 479.066 186.709 498.491C186.273 498.824 185.838 499.157 185.406 499.499C161.284 518.43 132.139 527.006 96.5547 529.364C94.8844 529.478 90.628 529.573 88.9578 529.573H-333.549" stroke="#2C4800" stroke-width="1.63" stroke-miterlimit="10"/>
<path d="M1120.22 549.892H571.368C567.749 549.892 559.066 549.455 555.456 548.932C524.035 544.396 497.053 533.044 474.318 514.541C471.119 511.936 467.976 509.739 464.982 507.277C464.631 506.992 464.28 506.706 463.929 506.421C433.393 481.519 411.739 451.141 395.464 410.047C393.435 404.894 391.486 399.56 389.635 394.045C381.828 370.76 374.485 343.633 363.54 318.266C355.648 299.982 340.16 259.829 323.308 258.536C323.267 258.536 323.485 258.517 323.445 258.507C306.532 257.176 290.858 293.697 283.665 310.469C273.869 333.307 268.887 360.7 262.569 384.737C258.357 400.767 253.261 416.227 247.335 430.642C232.746 466.126 213.3 495.382 188.036 516.414C187.6 516.775 187.16 517.137 186.721 517.508C162.393 537.978 133.07 547.287 97.7119 549.673C95.9771 549.788 91.8297 549.892 90.0948 549.892H-333.529" stroke="#294300" stroke-width="1.66" stroke-miterlimit="10"/>
<path d="M1120.2 570.22H569.961C566.209 570.22 557.753 569.774 554.009 569.222C522.746 564.639 495.662 552.649 472.762 532.768C469.567 529.992 466.428 527.586 463.435 524.905C463.084 524.591 462.733 524.287 462.382 523.973C431.865 497.037 410.236 462.893 394.405 418.566C392.432 413.004 390.544 407.271 388.761 401.376C381.24 376.455 374.232 347.997 363.561 321.232C355.96 302.159 340.549 260.333 323.685 259.125C323.648 259.125 323.878 259.106 323.838 259.097C306.917 257.861 291.316 296.378 284.381 313.997C274.758 338.442 269.965 367.118 263.829 392.743C259.738 409.829 254.719 426.354 248.837 441.833C234.353 479.922 214.77 511.708 189.361 534.346C188.921 534.736 188.481 535.126 188.037 535.516C163.504 557.527 134.004 567.577 98.8713 569.983C97.072 570.106 93.0334 570.211 91.2341 570.211H-333.512" stroke="#263E00" stroke-width="1.68" stroke-miterlimit="10"/>
<path d="M1120.19 590.549H568.556C564.667 590.549 556.441 590.092 552.564 589.522C521.454 584.891 494.27 572.274 471.208 551.014C468.017 548.076 464.882 545.452 461.885 542.561C461.534 542.219 461.183 541.896 460.832 541.554C430.359 512.43 408.735 474.674 393.347 427.114C391.427 421.153 389.607 415.01 387.888 408.735C380.675 382.141 373.969 352.39 363.589 324.227C356.274 304.374 340.943 260.856 324.071 259.743C324.035 259.743 324.277 259.724 324.245 259.715C307.32 258.574 291.799 299.078 285.114 317.543C275.678 343.605 271.038 373.527 265.103 400.758C261.117 418.88 256.195 436.499 250.349 453.033C235.966 493.728 216.25 528.033 190.691 552.288C190.247 552.707 189.804 553.125 189.36 553.543C164.624 577.095 134.943 587.877 100.037 590.301C98.1727 590.435 94.243 590.539 92.3791 590.539H-333.492" stroke="#233900" stroke-width="1.71" stroke-miterlimit="10"/>
<path d="M1120.17 610.877H567.152C563.129 610.877 555.129 610.421 551.119 609.812C520.162 605.134 492.873 591.899 469.658 569.241C466.475 566.132 463.34 563.308 460.343 560.199C459.992 559.838 459.641 559.476 459.294 559.115C428.866 527.814 407.245 486.435 392.297 435.643C390.433 429.273 388.674 422.741 387.024 416.075C380.097 387.846 373.707 356.773 363.624 327.203C356.592 306.571 341.346 261.36 324.466 260.343C324.433 260.343 324.688 260.323 324.655 260.323C307.727 259.278 292.295 301.769 285.852 321.09C276.621 348.768 272.139 379.973 266.381 408.783C262.52 427.96 257.671 446.653 251.869 464.253C237.591 507.553 217.738 544.377 192.03 570.239C191.586 570.686 191.138 571.133 190.691 571.58C165.753 596.672 135.89 608.186 101.21 610.639C99.2814 610.772 95.4608 610.877 93.5323 610.877H-333.473" stroke="#203500" stroke-width="1.73" stroke-miterlimit="10"/>
<path d="M1120.15 631.205H565.745C561.589 631.205 553.815 630.739 549.672 630.102C518.872 625.367 491.474 611.533 468.103 587.478C464.923 584.207 461.793 581.164 458.795 577.846C458.444 577.456 458.093 577.076 457.746 576.686C427.362 543.198 405.742 498.206 391.238 444.181C389.43 437.411 387.732 430.48 386.15 423.425C379.509 393.57 373.425 361.166 363.65 330.189C356.896 308.777 341.739 261.873 324.846 260.951C324.818 260.951 325.084 260.941 325.056 260.932C308.123 259.981 292.788 304.45 286.575 324.627C277.558 353.912 273.225 386.401 267.65 416.788C263.91 437.031 259.141 456.789 253.376 475.444C239.198 521.349 219.212 560.703 193.359 588.172C192.911 588.647 192.459 589.122 192.011 589.598C166.872 616.23 136.828 628.486 102.373 630.958C100.38 631.101 96.6644 631.205 94.6754 631.205H-333.451" stroke="#1D3000" stroke-width="1.76" stroke-miterlimit="10"/>
<path d="M1120.13 651.534H564.336C560.048 651.534 552.503 651.068 548.223 650.402C517.577 645.619 490.066 631.186 466.545 605.714C463.37 602.272 460.243 599.02 457.241 595.493C456.89 595.084 456.543 594.675 456.192 594.266C425.853 558.602 404.236 509.977 390.176 452.72C388.421 445.55 386.787 438.22 385.274 430.784C378.92 399.294 373.135 365.559 363.674 333.184C357.19 310.992 342.13 262.396 325.229 261.569C325.205 261.569 325.483 261.56 325.455 261.55C308.514 260.694 293.288 307.122 287.301 328.183C278.514 359.065 274.31 392.847 268.916 424.813C265.297 446.111 260.589 466.915 254.884 486.663C240.771 535.117 220.712 577.161 194.686 606.132C194.234 606.636 193.782 607.131 193.33 607.635C167.989 635.817 137.763 648.795 103.535 651.296C101.477 651.448 97.8702 651.553 95.8167 651.553H-333.436" stroke="#1A2B00" stroke-width="1.78" stroke-miterlimit="10"/>
<path d="M1120.11 671.862H562.932C558.51 671.862 551.191 671.386 546.778 670.692C516.285 665.862 488.661 650.83 464.991 623.941C461.82 620.337 458.693 616.867 455.695 613.13C455.344 612.693 454.997 612.265 454.65 611.828C424.356 573.976 402.739 521.739 389.123 461.248C387.424 453.67 385.847 445.95 384.406 438.125C378.338 405.008 372.843 369.942 363.705 336.16C357.488 313.179 342.528 262.9 325.616 262.159C325.592 262.159 325.886 262.149 325.862 262.139C308.917 261.379 293.804 309.756 288.031 331.701C279.486 364.18 275.403 399.265 270.186 432.81C266.688 455.163 262.061 477.041 256.392 497.845C242.385 548.913 222.188 593.468 196.012 624.046C195.56 624.578 195.104 625.101 194.649 625.634C169.11 655.356 138.698 669.066 104.696 671.586C102.574 671.748 99.0759 671.852 96.9538 671.852H-333.416" stroke="#172600" stroke-width="1.8" stroke-miterlimit="10"/>
<path d="M1120.09 692.19H561.525C556.966 692.19 549.878 691.715 545.331 690.983C514.995 686.105 487.246 670.483 463.439 642.178C460.272 638.412 457.149 634.733 454.152 630.768C453.805 630.311 453.454 629.855 453.107 629.389C422.856 589.351 401.243 533.5 388.067 469.777C386.421 461.8 384.908 453.68 383.536 445.465C377.755 410.713 372.546 374.316 363.735 339.136C357.78 315.356 342.925 263.404 326.005 262.758C325.984 262.758 326.287 262.758 326.267 262.748C309.318 262.082 294.326 312.399 288.762 335.247C280.467 369.305 276.497 405.702 271.462 440.825C268.09 464.234 263.535 487.196 257.911 509.045C244.008 562.728 223.674 609.784 197.353 641.987C196.897 642.548 196.437 643.1 195.981 643.661C170.241 674.933 139.648 689.366 105.867 691.914C103.685 692.076 100.292 692.19 98.1049 692.19H-333.395" stroke="#142100" stroke-width="1.83" stroke-miterlimit="10"/>
<path d="M1120.07 712.518H560.121C555.428 712.518 548.566 712.043 543.886 711.273C513.704 706.338 485.834 690.136 461.885 660.405C458.718 656.478 455.603 652.579 452.606 648.405C452.259 647.92 451.908 647.436 451.561 646.951C421.355 604.735 399.746 545.262 387.013 478.306C385.424 469.92 383.971 461.41 382.668 452.805C377.173 416.418 372.243 378.68 363.767 342.102C358.07 317.524 343.324 263.908 326.391 263.347C326.375 263.347 326.69 263.347 326.674 263.338C309.717 262.767 294.85 315.014 289.492 338.765C281.455 374.392 277.59 412.11 272.733 448.821C269.481 473.285 265.007 497.322 259.419 520.236C245.625 576.534 225.15 626.09 198.68 659.92C198.22 660.509 197.76 661.089 197.296 661.679C171.358 694.501 140.579 709.666 107.025 712.233C104.777 712.404 101.493 712.518 99.242 712.518H-333.379" stroke="#111D00" stroke-width="1.85" stroke-miterlimit="10"/>
<path d="M1120.05 732.856H558.716C553.891 732.856 547.254 732.381 542.445 731.582C512.416 726.6 484.417 709.818 460.335 678.66C457.172 674.562 454.062 670.455 451.06 666.071C450.713 665.558 450.362 665.054 450.015 664.541C419.853 620.138 398.245 557.052 385.956 486.863C384.422 478.078 383.031 469.168 381.796 460.174C376.588 422.161 371.928 383.073 363.794 345.107C358.352 319.72 343.719 264.44 326.778 263.975C326.762 263.975 327.093 263.975 327.076 263.965C310.116 263.49 295.378 317.648 290.221 342.331C282.451 379.517 278.679 418.576 274.003 456.856C270.872 482.375 266.479 507.486 260.931 531.456C247.242 590.378 226.63 642.425 200.011 677.871C199.551 678.489 199.083 679.097 198.619 679.706C172.483 714.068 141.519 729.966 108.19 732.561C105.878 732.742 102.703 732.856 100.387 732.856H-333.359" stroke="#0F1800" stroke-width="1.88" stroke-miterlimit="10"/>
<path d="M1120.03 753.184H557.307C552.349 753.184 545.938 752.7 540.996 751.872C511.121 746.843 482.992 729.481 458.781 696.887C455.618 692.627 452.508 688.32 449.514 683.709C449.167 683.176 448.816 682.644 448.473 682.102C418.356 635.522 396.751 568.813 384.902 495.392C383.421 486.197 382.094 476.899 380.924 467.524C376.002 427.875 371.612 387.427 363.818 348.093C358.629 321.898 344.109 264.954 327.157 264.583C327.144 264.583 327.487 264.583 327.475 264.583C310.51 264.203 295.905 320.253 290.943 345.877C283.443 384.604 279.764 425.013 275.269 464.871C272.259 491.455 267.942 517.631 262.435 542.666C248.851 604.202 228.102 658.75 201.337 695.822C200.873 696.469 200.405 697.106 199.937 697.743C173.608 733.655 142.454 750.275 109.351 752.899C106.975 753.089 103.909 753.194 101.528 753.194H-333.34" stroke="#0C1300" stroke-width="1.9" stroke-miterlimit="10"/>
<path d="M1120.01 773.513H555.901C550.805 773.513 544.628 773.028 539.549 772.163C509.827 767.076 481.565 749.153 457.225 715.114C454.066 710.693 450.96 706.167 447.966 701.346C447.619 700.785 447.272 700.234 446.925 699.673C416.852 650.906 395.248 580.584 383.846 503.93C382.422 494.336 381.155 484.638 380.054 474.873C375.418 433.589 371.291 391.782 363.847 351.078C358.909 324.066 344.502 265.467 327.545 265.192C327.537 265.192 327.892 265.192 327.88 265.192C310.907 264.906 296.443 322.839 291.675 349.414C284.453 389.671 280.858 431.44 276.541 472.886C273.657 500.526 269.416 527.786 263.95 553.866C250.47 618.017 229.584 675.066 202.67 713.754C202.202 714.429 201.734 715.095 201.262 715.761C174.763 753.337 143.395 770.698 110.518 773.208C108.078 773.418 105.116 773.513 102.675 773.513H-333.318" stroke="#090E00" stroke-width="1.93" stroke-miterlimit="10"/>
<path d="M1119.99 793.841H554.492C549.263 793.841 543.312 793.366 538.1 792.453C508.535 787.318 480.133 768.825 455.668 733.351C452.509 728.768 449.41 724.014 446.412 718.993C446.065 718.413 445.719 717.824 445.372 717.244C415.343 666.29 393.742 592.355 382.781 512.468C381.409 502.466 380.207 492.378 379.174 482.223C374.825 439.313 370.96 396.127 363.867 354.064C359.175 326.224 344.889 265.981 327.924 265.791C327.92 265.791 328.283 265.791 328.279 265.791C311.302 265.6 296.975 325.406 292.4 352.951C285.457 394.73 281.947 437.877 277.808 480.892C275.044 509.587 270.884 537.921 265.454 565.058C252.08 631.823 231.056 691.372 203.993 731.687C203.521 732.39 203.049 733.084 202.577 733.778C175.877 772.866 144.327 790.951 111.676 793.527C109.171 793.736 106.318 793.841 103.813 793.841H-333.303" stroke="#060A00" stroke-width="1.95" stroke-miterlimit="10"/>
<path d="M1119.98 814.169H553.087C547.726 814.169 542.001 813.703 536.655 812.753C507.24 807.647 478.7 788.507 454.114 751.587C450.955 746.843 447.864 741.87 444.867 736.64C444.52 736.032 444.173 735.423 443.826 734.815C413.841 681.684 392.245 604.126 381.723 521.007C380.408 510.605 379.266 500.117 378.302 489.573C374.239 445.027 370.628 400.473 363.895 357.049C359.449 328.373 345.284 266.494 328.306 266.399H328.682C311.701 266.304 297.515 327.964 293.126 356.488C286.465 399.759 283.036 444.305 279.078 488.907C276.435 518.658 272.352 548.067 266.966 576.268C253.701 645.648 232.536 707.698 205.328 749.638C204.856 750.37 204.379 751.093 203.903 751.806C176.997 792.405 145.27 811.203 112.845 813.855C110.275 814.074 107.532 814.179 104.962 814.179H-333.283" stroke="#030500" stroke-width="1.98" stroke-miterlimit="10"/>
<path d="M1119.96 834.498H551.685C516.835 834.498 481.892 815.367 452.566 769.824C413.314 708.858 386.271 604.858 377.44 496.913C373.663 450.732 370.307 404.789 363.932 360.025C359.728 330.512 345.688 266.998 328.703 266.998H329.094C312.105 266.998 298.069 330.503 293.865 360.025C287.491 404.789 284.134 450.742 280.358 496.913C271.527 604.858 244.483 708.858 205.232 769.824C175.905 815.377 140.963 834.498 106.113 834.498H-333.262" stroke="black" stroke-width="2" stroke-miterlimit="10"/>
</g>
</svg>
