<svg width="1600" height="836" viewBox="0 0 1600 836" fill="none" xmlns="http://www.w3.org/2000/svg">
<g opacity="0.5">
<path d="M2754.51 1H1461.14C1357.03 1 1291.56 11.05 1245.48 30.9029C1244.58 31.2832 1243.7 31.6731 1242.82 32.0629C1164.76 66.254 1111.43 133.41 1042.06 179.6C930.045 254.172 773.971 261.873 648.844 214.903C596.35 195.203 550.221 163.132 507.663 128.209C464.668 92.9241 426.225 54.9869 373.89 32.0629C373.007 31.6731 372.115 31.2928 371.232 30.9029C325.144 11.05 264.866 1 162.932 1H-821" stroke="#77C400" stroke-miterlimit="10"/>
<path d="M2754.46 21.3282H1494.14C1493.81 21.3282 1457.91 21.3092 1457.58 21.2902C1370.39 18.0575 1309.76 27.4324 1265.06 40.4395C1256.72 42.8641 1248.96 45.6024 1241.67 48.5309C1240.77 48.8922 1239.89 49.2535 1239.01 49.6148C1161.06 81.6285 1107.74 145.162 1039.45 188.119C1030.97 193.453 1022.24 198.397 1013.3 202.971C975.865 222.072 934.566 234.338 891.69 240.68C852.126 246.537 810.797 246.489 769.974 242.8C769.686 242.772 769.428 242.743 769.151 242.724C727.921 238.921 687.713 231.219 650.608 218.44C619.74 207.81 591.083 193.396 564.132 176.424C545.937 164.957 528.406 152.426 511.351 139.409C468.614 106.749 429.833 71.3027 377.131 50.0046C376.239 49.6433 375.346 49.2915 374.454 48.9302C327.869 30.5891 267.126 19.5597 165.767 21.3282C165.608 21.3282 148.513 21.3282 148.355 21.3282H-820.951" stroke="#74BF00" stroke-width="1.02" stroke-miterlimit="10"/>
<path d="M2754.41 41.6566H1490.69C1490.04 41.6566 1454.69 41.609 1454.03 41.59C1367.23 38.3097 1306.29 46.7529 1261.24 58.6856C1252.91 60.8914 1245.17 63.4681 1237.87 66.1874C1236.99 66.5202 1236.1 66.853 1235.21 67.1953C1157.37 97.0222 1104.07 156.942 1036.86 196.667C1028.51 201.602 1019.93 206.146 1011.16 210.33C974.428 227.796 933.933 238.445 891.761 243.675C852.911 248.495 811.77 247.012 770.927 243.409C770.65 243.38 770.422 243.361 770.144 243.333C728.904 239.624 688.934 233.397 652.404 221.977C621.992 212.479 593.772 199.833 567.257 184.43C549.369 174.019 532.017 162.561 515.061 150.6C472.582 120.555 433.464 87.6092 380.395 67.9274C379.492 67.5946 378.6 67.2619 377.688 66.9386C330.647 49.9952 269.418 39.8405 168.614 41.6376C168.297 41.6376 151.469 41.6566 151.152 41.6566H-820.91" stroke="#71BA00" stroke-width="1.05" stroke-miterlimit="10"/>
<path d="M2754.36 61.9849H1487.23C1486.24 61.9849 1451.47 61.9183 1450.47 61.8803C1364.06 58.5525 1302.83 66.0734 1257.42 76.9126C1249.09 78.8998 1241.37 81.3148 1234.07 83.8249C1233.19 84.1292 1232.3 84.443 1231.42 84.7567C1153.69 112.397 1100.39 168.704 1034.28 205.196C1026.06 209.721 1017.64 213.877 1009.03 217.67C973.009 233.511 933.337 242.534 891.849 246.651C853.713 250.435 812.761 247.516 771.888 244.008C771.62 243.979 771.422 243.96 771.154 243.932C729.895 240.318 690.152 235.555 654.218 225.514C624.242 217.138 596.478 206.261 570.4 192.445C552.809 183.089 535.655 172.707 518.798 161.81C476.577 134.379 437.122 103.935 383.686 85.8787C382.784 85.5744 381.871 85.2702 380.959 84.9754C333.433 69.4868 271.747 60.1593 171.498 61.9754C171.022 61.9754 154.463 62.0039 153.987 62.0039H-820.861" stroke="#6EB600" stroke-width="1.07" stroke-miterlimit="10"/>
<path d="M2754.32 82.3131H1483.78C1482.46 82.3131 1448.24 82.2275 1446.92 82.1705C1360.89 78.7856 1299.39 85.3937 1253.61 95.149C1245.29 96.9175 1237.56 99.1519 1230.26 101.472C1229.38 101.757 1228.5 102.042 1227.62 102.328C1150 127.79 1096.7 180.475 1031.67 213.724C1023.59 217.851 1015.31 221.607 1006.88 225.01C971.561 239.216 932.711 246.622 891.908 249.627C854.506 252.375 813.722 248.02 772.83 244.607C772.572 244.578 772.403 244.559 772.136 244.531C730.866 241.013 691.332 237.723 655.992 229.042C626.433 221.778 599.145 212.678 573.513 200.442C556.22 192.15 539.264 182.842 522.496 172.992C480.533 148.176 440.741 120.231 386.948 103.792C386.035 103.516 385.123 103.24 384.201 102.965C336.179 88.9307 274.047 80.421 174.354 82.2656C173.719 82.2751 157.427 82.2941 156.793 82.2941H-820.812" stroke="#6BB100" stroke-width="1.1" stroke-miterlimit="10"/>
<path d="M2754.27 102.641H1480.32C1478.67 102.641 1445.01 102.527 1443.36 102.461C1357.71 99.0283 1295.96 104.724 1249.78 113.376C1241.47 114.935 1233.76 116.989 1226.46 119.109C1225.57 119.366 1224.69 119.632 1223.81 119.889C1146.3 143.165 1093.01 192.236 1029.06 222.253C1021.11 225.971 1012.99 229.337 1004.73 232.351C970.115 244.92 932.108 250.72 891.969 252.603C855.3 254.324 814.675 248.524 773.773 245.206C773.515 245.187 773.376 245.158 773.128 245.13C731.849 241.707 692.493 239.881 657.788 232.579C628.616 226.437 601.823 219.115 576.637 208.457C559.642 201.221 542.874 192.987 526.216 184.202C484.52 162 444.381 136.566 390.221 121.743C389.299 121.496 388.377 121.239 387.454 121.001C338.947 108.422 276.348 100.73 177.22 102.594C176.427 102.613 160.403 102.632 159.61 102.632H-820.762" stroke="#68AC00" stroke-width="1.12" stroke-miterlimit="10"/>
<path d="M2754.22 122.979H1476.86C1474.89 122.979 1441.78 122.846 1439.8 122.77C1354.54 119.29 1292.53 124.082 1245.95 131.622C1237.66 132.963 1229.95 134.855 1222.65 136.766C1221.77 136.994 1220.88 137.241 1220 137.47C1142.6 158.568 1089.31 204.017 1026.47 230.801C1018.65 234.119 1010.68 237.086 1002.59 239.719C968.676 250.663 931.522 254.837 892.037 255.607C856.113 256.302 815.646 249.066 774.714 245.833C774.466 245.814 774.357 245.786 774.109 245.767C732.81 242.439 693.623 242.087 659.562 236.144C630.757 231.115 604.49 225.571 579.74 216.491C563.052 210.311 546.453 203.189 529.904 195.421C488.416 175.939 448.019 152.778 393.463 139.704C392.541 139.485 391.609 139.257 390.676 139.048C341.663 127.933 278.628 121.059 180.056 122.941C179.104 122.96 163.338 122.989 162.396 122.989H-820.723" stroke="#66A700" stroke-width="1.15" stroke-miterlimit="10"/>
<path d="M2754.18 143.307H1473.42C1471.11 143.307 1438.58 143.155 1436.27 143.06C1351.39 139.533 1289.14 143.431 1242.15 149.859C1233.87 150.99 1226.16 152.701 1218.86 154.403C1217.98 154.613 1217.1 154.822 1216.22 155.04C1138.93 173.952 1085.65 215.788 1023.89 239.339C1016.21 242.258 1008.39 244.825 1000.47 247.069C967.26 256.378 930.968 258.945 892.128 258.593C856.967 258.27 816.639 249.579 775.687 246.442C775.449 246.423 775.37 246.394 775.132 246.375C733.823 243.142 694.764 244.274 661.388 239.681C632.93 235.764 607.208 231.999 582.905 224.497C566.514 219.372 550.113 213.334 533.663 206.612C492.433 189.764 451.699 169.065 396.786 157.627C395.854 157.436 394.922 157.237 393.98 157.056C344.47 147.405 280.989 141.339 182.972 143.25C181.862 143.269 166.363 143.307 165.263 143.307H-820.672" stroke="#63A300" stroke-width="1.17" stroke-miterlimit="10"/>
<path d="M2754.13 163.636H1469.96C1467.32 163.636 1435.34 163.465 1432.7 163.35C1348.21 159.766 1285.72 162.79 1238.33 168.086C1230.07 169.008 1222.35 170.548 1215.05 172.041C1214.17 172.222 1213.29 172.412 1212.42 172.602C1135.23 189.327 1081.95 227.54 1021.28 247.868C1013.73 250.378 1006.07 252.555 998.305 254.409C965.801 262.082 930.382 263.052 892.177 261.569C857.779 260.228 817.59 250.083 776.608 247.031C776.37 247.012 776.331 246.984 776.093 246.965C734.774 243.827 695.825 246.451 663.142 243.209C635.001 240.413 609.835 238.474 585.988 232.503C569.884 228.471 553.682 223.48 537.331 217.813C496.359 203.598 455.288 185.371 400.008 175.568C399.066 175.397 398.124 175.236 397.182 175.074C347.157 166.887 283.25 161.63 185.787 163.569C184.528 163.598 169.288 163.636 168.028 163.636H-820.623" stroke="#609E00" stroke-width="1.2" stroke-miterlimit="10"/>
<path d="M2754.08 183.964H1466.5C1463.53 183.964 1432.11 183.774 1429.15 183.641C1345.05 180.009 1282.34 182.158 1234.51 186.322C1226.27 187.035 1218.55 188.395 1211.26 189.688C1210.37 189.84 1209.5 190.011 1208.62 190.173C1131.54 204.72 1078.27 239.311 1018.69 256.406C1011.28 258.517 1003.77 260.295 996.172 261.759C964.373 267.806 929.836 267.169 892.255 264.555C858.621 262.206 818.571 250.597 777.57 247.64C777.341 247.621 777.332 247.602 777.104 247.573C735.765 244.531 696.905 248.667 664.956 246.746C637.103 245.072 612.541 244.911 589.13 240.509C573.325 237.533 557.321 233.625 541.069 229.004C500.364 217.423 458.936 201.659 403.299 193.501C402.357 193.358 401.405 193.225 400.453 193.092C349.922 186.379 285.579 181.92 188.662 183.878C187.244 183.907 172.272 183.955 170.854 183.955H-820.574" stroke="#5D9900" stroke-width="1.22" stroke-miterlimit="10"/>
<path d="M2754.03 204.292H1463.04C1459.75 204.292 1428.88 204.083 1425.6 203.941C1341.87 200.261 1278.95 201.544 1230.68 204.559C1222.46 205.072 1214.75 206.251 1207.45 207.335C1206.57 207.468 1205.69 207.611 1204.81 207.744C1127.85 220.104 1074.59 251.082 1016.08 264.944C1008.81 266.646 1001.45 268.035 994.022 269.109C962.926 273.521 929.282 271.296 892.306 267.531C859.455 264.184 819.524 251.101 778.493 248.239C778.275 248.22 778.285 248.201 778.067 248.182C736.718 245.234 697.918 250.891 666.713 250.292C639.117 249.76 615.19 251.357 592.225 248.533C576.727 246.622 560.911 243.789 544.749 240.223C504.302 231.276 462.537 217.984 406.543 211.452C405.591 211.338 404.629 211.224 403.677 211.129C352.631 205.899 287.851 202.239 191.5 204.216C189.923 204.245 175.218 204.292 173.631 204.292H-820.533" stroke="#5A9400" stroke-width="1.24" stroke-miterlimit="10"/>
<path d="M2753.99 224.621H1459.59C1455.97 224.621 1425.66 224.392 1422.05 224.231C1338.7 220.504 1275.58 220.931 1226.87 222.786C1218.67 223.099 1210.96 224.088 1203.65 224.972C1202.77 225.077 1201.9 225.191 1201.02 225.305C1124.17 235.479 1070.91 262.843 1013.5 273.473C1006.36 274.776 999.148 275.774 991.89 276.459C961.508 279.302 928.756 275.432 892.385 270.516C860.327 266.18 820.505 251.614 779.454 248.847C779.246 248.828 779.286 248.809 779.077 248.79C737.719 245.938 698.948 253.145 668.527 253.829C641.169 254.447 617.906 257.794 595.368 256.539C580.167 255.693 564.55 253.934 548.486 251.414C508.317 245.101 466.185 234.281 409.834 229.384C408.872 229.299 407.91 229.213 406.939 229.146C355.377 225.391 290.171 222.529 194.374 224.535C192.639 224.573 178.202 224.621 176.457 224.621H-820.484" stroke="#578F00" stroke-width="1.27" stroke-miterlimit="10"/>
<path d="M2753.94 244.949H1456.12C1452.17 244.949 1422.43 244.702 1418.48 244.521C1335.53 240.737 1272.21 240.337 1223.04 241.022C1214.86 241.136 1207.15 241.944 1199.84 242.619C1198.96 242.705 1198.09 242.791 1197.21 242.876C1120.45 250.72 1067.22 274.614 1010.9 282.011C1003.9 282.905 996.837 283.514 989.747 283.808C960.059 285.025 928.239 279.587 892.453 273.502C861.189 268.187 821.476 252.127 780.395 249.456C780.187 249.437 780.266 249.418 780.058 249.399C738.68 246.641 699.929 255.436 670.311 257.376C643.161 259.154 620.583 264.241 598.481 264.555C583.587 264.764 568.158 264.089 552.184 262.615C512.283 258.935 469.804 250.587 413.086 247.326C412.114 247.269 411.152 247.212 410.17 247.164C358.093 244.892 292.46 242.819 197.219 244.854C195.326 244.892 181.146 244.949 179.252 244.949H-820.436" stroke="#548B00" stroke-width="1.29" stroke-miterlimit="10"/>
<path d="M2753.89 265.277H1452.68C1448.39 265.277 1419.21 265.011 1414.94 264.811C1332.36 260.979 1268.85 259.753 1219.23 259.249C1211.07 259.163 1203.35 259.791 1196.05 260.257C1195.16 260.314 1194.29 260.38 1193.42 260.447C1116.77 266.095 1063.53 286.385 1008.3 290.54C1001.43 291.035 994.518 291.244 987.606 291.149C958.623 290.73 927.725 283.732 892.524 276.478C862.063 270.202 822.449 252.641 781.349 250.055C781.15 250.036 781.259 250.017 781.061 249.998C739.673 247.335 700.912 257.737 672.107 260.903C645.136 263.87 623.271 270.668 601.615 272.56C587.029 273.834 571.789 274.234 555.914 273.815C516.29 272.77 473.444 266.894 416.379 265.258C415.407 265.23 414.426 265.201 413.444 265.182C360.851 264.402 294.792 263.119 200.106 265.163C198.054 265.211 184.142 265.268 182.089 265.268H-820.395" stroke="#518600" stroke-width="1.32" stroke-miterlimit="10"/>
<path d="M2753.84 285.605H1449.21C1444.6 285.605 1415.99 285.33 1411.38 285.111C1329.18 281.232 1265.48 279.197 1215.41 277.495C1207.27 277.219 1199.56 277.647 1192.24 277.904C1191.36 277.932 1190.48 277.98 1189.61 278.018C1113.07 281.479 1059.84 298.261 1005.69 299.078C998.959 299.183 992.197 298.983 985.454 298.498C957.164 296.454 927.209 287.906 892.583 279.463C862.925 272.237 823.41 253.154 782.29 250.654C782.101 250.635 782.24 250.616 782.042 250.597C740.644 248.029 701.863 260.076 673.891 264.44C645.918 268.805 625.958 277.105 604.728 280.566C590.449 282.896 575.407 284.379 559.621 285.006C520.266 286.585 477.073 283.2 419.641 283.19C418.659 283.19 417.677 283.19 416.686 283.19C363.577 283.903 297.092 283.4 202.961 285.472C200.75 285.52 187.106 285.586 184.895 285.586H-820.346" stroke="#4E8100" stroke-width="1.34" stroke-miterlimit="10"/>
<path d="M2753.8 305.934H1445.76C1440.83 305.934 1412.76 305.639 1407.83 305.401C1326.02 301.474 1262.12 298.641 1211.59 295.722C1203.48 295.256 1195.76 295.494 1188.44 295.541C1187.57 295.541 1186.69 295.56 1185.82 295.579C1109.4 296.854 1056.16 310.022 1003.11 307.607C996.509 307.303 989.906 306.713 983.331 305.839C955.746 302.168 926.722 292.08 892.672 282.439C863.827 274.272 824.402 253.658 783.251 251.253C783.063 251.234 783.231 251.215 783.053 251.205C741.645 248.733 702.824 262.472 675.695 267.977C648.565 273.483 628.664 283.533 607.861 288.581C593.88 291.966 579.036 294.524 563.339 296.216C524.261 300.419 480.701 299.516 422.912 301.142C421.921 301.17 420.929 301.189 419.937 301.237C366.303 303.443 299.401 303.718 205.826 305.82C203.456 305.877 190.08 305.943 187.71 305.943H-820.297" stroke="#4B7C00" stroke-width="1.37" stroke-miterlimit="10"/>
<path d="M2753.75 326.272H1442.3C1437.03 326.272 1409.53 325.958 1404.27 325.701C1322.84 321.717 1258.76 318.104 1207.77 313.968C1199.67 313.312 1191.95 313.36 1184.63 313.198C1183.76 313.179 1182.89 313.169 1182.01 313.16C1105.7 312.247 1052.47 321.803 1000.51 316.155C994.041 315.451 987.586 314.462 981.181 313.207C954.289 307.911 926.218 296.302 892.732 285.444C864.7 276.354 825.354 254.191 784.194 251.88C784.016 251.861 784.214 251.852 784.035 251.833C742.607 249.456 703.747 264.916 677.481 271.543C651.214 278.17 631.343 289.998 610.986 296.616C597.312 301.056 582.656 304.698 567.059 307.436C528.258 314.253 484.331 315.851 426.195 319.093C425.204 319.15 424.202 319.198 423.201 319.264C369.051 322.972 301.713 324.018 208.703 326.148C206.174 326.205 193.066 326.281 190.537 326.281H-820.246" stroke="#497800" stroke-width="1.39" stroke-miterlimit="10"/>
<path d="M2753.7 346.6H1438.84C1433.24 346.6 1406.3 346.277 1400.71 346.001C1319.66 341.969 1255.4 337.586 1203.94 332.205C1195.87 331.358 1188.15 331.206 1180.82 330.845C1179.95 330.797 1179.08 330.769 1178.21 330.731C1102.01 327.631 1048.77 333.574 997.898 324.693C991.562 323.59 985.265 322.202 979.028 320.557C952.831 313.626 925.721 300.524 892.791 288.429C865.572 278.436 826.316 254.704 785.126 252.489C784.957 252.47 785.185 252.46 785.017 252.441C743.579 250.159 704.669 267.388 679.255 275.08C653.841 282.772 634.019 296.426 614.089 304.622C600.722 310.127 586.265 314.833 570.747 318.637C532.224 328.069 487.93 332.167 429.437 337.035C428.436 337.12 427.424 337.196 426.423 337.291C371.747 342.511 303.993 344.327 211.538 346.467C208.851 346.533 196.01 346.6 193.323 346.6H-820.207" stroke="#467300" stroke-width="1.41" stroke-miterlimit="10"/>
<path d="M2753.66 366.928H1435.4C1429.47 366.928 1403.1 366.586 1397.18 366.291C1316.52 362.212 1252.06 357.068 1200.15 350.432C1192.11 349.405 1184.39 349.053 1177.05 348.482C1176.17 348.416 1175.3 348.359 1174.44 348.292C1098.36 343.006 1045.1 345.335 995.341 333.222C989.144 331.71 982.986 329.932 976.917 327.897C951.424 319.331 925.256 304.745 892.891 291.405C866.486 280.519 827.318 255.208 786.108 253.088C785.95 253.069 786.208 253.059 786.039 253.04C744.591 250.853 705.642 269.889 681.081 278.607C654.834 287.925 636.737 302.844 617.243 312.627C604.184 319.178 589.915 324.969 574.496 329.828C536.251 341.874 491.6 348.473 432.74 354.967C431.729 355.081 430.717 355.186 429.706 355.309C374.515 362.041 306.334 364.618 214.435 366.785C211.589 366.852 199.006 366.928 196.17 366.928H-820.156" stroke="#436E00" stroke-width="1.44" stroke-miterlimit="10"/>
<path d="M2753.61 387.256H1431.94C1425.68 387.256 1399.86 386.905 1393.62 386.581C1313.34 382.455 1248.7 376.569 1196.32 368.668C1188.3 367.461 1180.58 366.909 1173.24 366.129C1172.37 366.034 1171.49 365.958 1170.63 365.873C1094.67 358.399 1041.4 357.116 992.732 341.77C986.664 339.859 980.665 337.681 974.765 335.257C949.966 325.064 924.75 309.014 892.94 294.4C867.348 282.639 828.27 255.731 787.03 253.706C786.871 253.687 787.169 253.677 787.01 253.658C745.542 251.567 706.563 272.446 682.845 282.164C656.737 292.86 639.394 309.29 620.346 320.652C607.584 328.259 593.514 335.124 578.184 341.038C540.217 355.69 495.199 364.798 435.992 372.909C434.971 373.051 433.949 373.184 432.928 373.337C377.221 381.58 308.614 384.917 217.27 387.114C214.266 387.19 201.95 387.266 198.956 387.266H-820.107" stroke="#406900" stroke-width="1.46" stroke-miterlimit="10"/>
<path d="M2753.56 407.585H1428.48C1421.89 407.585 1396.63 407.223 1390.06 406.872C1310.17 402.688 1245.33 396.08 1192.49 386.895C1184.49 385.507 1176.77 384.756 1169.43 383.767C1168.56 383.653 1167.7 383.539 1166.82 383.434C1090.98 373.783 1037.7 368.877 990.134 350.298C984.204 347.978 978.354 345.411 972.622 342.597C948.517 330.769 924.253 313.274 893.009 297.376C868.229 284.759 829.241 256.235 787.981 254.305C787.832 254.295 788.15 254.276 788.001 254.267C746.523 252.27 707.525 275.032 684.639 285.701C658.68 297.814 642.09 315.718 623.469 328.668C611.014 337.329 597.132 345.269 581.902 352.248C544.202 369.514 498.827 381.133 439.263 390.86C438.242 391.031 437.211 391.193 436.18 391.364C379.957 401.129 310.924 405.217 220.135 407.442C216.972 407.518 204.924 407.604 201.771 407.604H-820.059" stroke="#3D6400" stroke-width="1.49" stroke-miterlimit="10"/>
<path d="M2753.52 427.913H1425.02C1418.1 427.913 1393.4 427.533 1386.5 427.171C1306.98 422.94 1241.96 415.619 1188.67 405.141C1180.69 403.572 1172.96 402.621 1165.61 401.414C1164.74 401.271 1163.88 401.138 1163.01 401.005C1087.27 389.167 1033.99 380.639 987.517 358.837C981.717 356.117 976.025 353.151 970.462 349.947C947.061 336.483 923.719 317.562 893.06 300.362C869.074 286.899 830.194 256.758 788.905 254.904C788.766 254.894 789.113 254.875 788.974 254.866C747.487 252.964 708.478 277.628 686.415 289.238C660.624 302.796 644.759 322.145 626.574 336.673C614.417 346.391 600.733 355.404 585.592 363.439C548.16 383.31 502.438 397.439 442.507 408.783C441.476 408.982 440.445 409.172 439.404 409.372C382.666 420.658 313.206 425.507 222.962 427.742C219.65 427.827 207.861 427.913 204.539 427.913H-820.018" stroke="#3A6000" stroke-width="1.51" stroke-miterlimit="10"/>
<path d="M2753.47 448.241H1421.57C1414.32 448.241 1390.19 447.851 1382.95 447.462C1303.82 443.183 1238.58 435.158 1184.86 423.368C1176.9 421.619 1169.17 420.468 1161.83 419.051C1160.95 418.88 1160.09 418.728 1159.23 418.566C1083.61 404.552 1030.32 392.391 984.939 367.356C979.277 364.228 973.724 360.871 968.34 357.287C945.632 342.188 923.223 321.86 893.148 303.329C869.955 289.038 831.185 257.252 789.876 255.493C789.737 255.484 790.124 255.465 789.985 255.455C748.477 253.649 709.498 280.252 688.219 292.756C662.627 307.797 647.455 328.544 629.716 344.66C617.867 355.433 604.371 365.511 589.329 374.62C552.165 397.088 506.086 413.746 445.808 426.705C444.767 426.924 443.726 427.143 442.685 427.38C385.431 440.188 315.545 445.788 225.857 448.051C222.386 448.137 210.864 448.232 207.384 448.232H-819.969" stroke="#375B00" stroke-width="1.54" stroke-miterlimit="10"/>
<path d="M2753.42 468.57H1418.11C1410.53 468.57 1386.95 468.17 1379.39 467.752C1300.64 463.416 1235.2 454.707 1181.03 441.595C1173.09 439.674 1165.37 438.315 1158.02 436.689C1157.15 436.499 1156.28 436.318 1155.42 436.128C1079.91 419.936 1026.62 404.152 982.34 375.885C976.807 372.357 971.413 368.592 966.197 364.627C944.194 347.893 922.697 326.176 893.217 306.305C870.808 291.196 832.156 257.756 790.827 256.092C790.698 256.083 791.115 256.073 790.986 256.054C749.468 254.343 710.519 282.905 690.023 296.293C664.659 312.846 650.152 334.971 632.849 352.675C621.297 364.494 608 375.657 593.047 385.821C556.151 410.893 509.725 430.062 449.08 444.647C448.039 444.894 446.988 445.142 445.937 445.408C388.167 459.746 317.855 466.088 228.722 468.379C225.093 468.474 213.838 468.57 210.199 468.57H-819.92" stroke="#345600" stroke-width="1.56" stroke-miterlimit="10"/>
<path d="M2753.38 488.898H1414.66C1406.76 488.898 1383.73 488.489 1375.84 488.042C1297.47 483.659 1231.82 474.265 1177.22 459.832C1169.29 457.74 1161.57 456.171 1154.22 454.336C1153.36 454.117 1152.49 453.908 1151.62 453.699C1076.23 435.329 1022.94 415.914 979.743 384.423C974.349 380.487 969.104 376.332 964.056 371.977C942.757 353.598 922.152 330.522 893.288 309.29C871.651 293.374 833.129 258.27 791.77 256.701C791.651 256.691 792.097 256.682 791.968 256.663C750.441 255.046 711.561 285.586 691.799 299.83C666.703 317.923 652.81 341.399 635.954 360.681C624.699 373.555 611.601 385.792 596.747 397.012C560.118 424.69 513.345 446.378 452.334 462.57C451.283 462.846 450.221 463.121 449.17 463.407C390.895 479.266 320.137 486.369 231.569 488.679C227.781 488.774 216.795 488.869 212.997 488.869H-819.879" stroke="#315100" stroke-width="1.59" stroke-miterlimit="10"/>
<path d="M2753.33 509.226H1411.2C1402.96 509.226 1380.5 508.808 1372.28 508.342C1294.29 503.911 1228.43 493.851 1173.39 478.068C1165.48 475.805 1157.76 474.027 1150.4 471.983C1149.54 471.745 1148.67 471.507 1147.8 471.27C1072.52 450.723 1019.23 427.675 977.125 392.961C971.859 388.626 966.773 384.071 961.894 379.327C941.299 359.312 921.567 334.876 893.336 312.276C872.454 295.56 834.08 258.783 792.701 257.309C792.592 257.3 793.058 257.29 792.949 257.281C751.402 255.76 712.622 288.287 693.583 303.386C668.784 323.048 655.487 347.836 639.076 368.716C628.119 382.645 615.219 395.947 600.454 408.241C564.083 438.524 516.964 462.732 455.605 480.54C454.544 480.844 453.483 481.149 452.422 481.462C393.641 498.862 322.446 506.697 234.434 509.026C230.487 509.131 219.758 509.226 215.812 509.226H-819.83" stroke="#2E4C00" stroke-width="1.61" stroke-miterlimit="10"/>
<path d="M2753.29 529.564H1407.75C1399.18 529.564 1377.27 529.136 1368.73 528.642C1291.13 524.163 1225.04 513.448 1169.58 496.314C1161.7 493.88 1153.97 491.893 1146.61 489.639C1145.75 489.373 1144.89 489.116 1144.03 488.86C1068.85 466.135 1015.64 439.38 974.556 401.518C969.439 396.764 964.491 391.83 959.781 386.695C939.89 365.045 921.011 339.26 893.435 315.28C873.306 297.776 835.081 259.316 793.672 257.937C793.563 257.927 794.069 257.918 793.96 257.908C752.403 256.482 713.742 291.006 695.387 306.942C670.935 328.183 658.183 354.282 642.209 376.74C631.56 391.725 618.838 406.101 604.182 419.451C568.069 452.33 520.612 479.066 458.886 498.491C457.816 498.824 456.745 499.157 455.684 499.499C396.397 518.43 324.766 527.006 237.309 529.364C233.204 529.478 222.742 529.573 218.637 529.573H-819.781" stroke="#2C4800" stroke-width="1.63" stroke-miterlimit="10"/>
<path d="M2753.24 549.892H1404.29C1395.39 549.892 1374.05 549.455 1365.18 548.932C1287.95 544.396 1221.64 533.044 1165.76 514.541C1157.9 511.936 1150.18 509.739 1142.82 507.277C1141.95 506.992 1141.09 506.706 1140.23 506.421C1065.18 481.519 1011.96 451.141 971.959 410.047C966.971 404.894 962.182 399.56 957.631 394.045C938.444 370.76 920.397 343.633 893.496 318.266C874.1 299.982 836.034 259.829 794.615 258.536C794.516 258.536 795.052 258.517 794.953 258.507C753.386 257.176 714.863 293.697 697.183 310.469C673.108 333.307 660.862 360.7 645.334 384.737C634.982 400.767 622.458 416.227 607.892 430.642C572.036 466.126 524.242 495.382 462.15 516.414C461.079 516.775 459.998 517.137 458.917 517.508C399.125 537.978 327.058 547.287 240.156 549.673C235.892 549.788 225.699 549.892 221.435 549.892H-819.73" stroke="#294300" stroke-width="1.66" stroke-miterlimit="10"/>
<path d="M2753.19 570.22H1400.83C1391.6 570.22 1370.82 569.774 1361.62 569.222C1284.78 564.639 1218.22 552.649 1161.93 532.768C1154.08 529.992 1146.37 527.586 1139.01 524.905C1138.15 524.591 1137.28 524.287 1136.42 523.973C1061.42 497.037 1008.26 462.893 969.351 418.566C964.502 413.004 959.861 407.271 955.479 401.376C936.996 376.455 919.772 347.997 893.545 321.232C874.863 302.159 836.985 260.333 795.537 259.125C795.448 259.125 796.013 259.106 795.914 259.097C754.327 257.861 715.983 296.378 698.938 313.997C675.289 338.442 663.509 367.118 648.427 392.743C638.372 409.829 626.037 426.354 611.58 441.833C575.982 479.922 527.851 511.708 465.402 534.346C464.321 534.736 463.24 535.126 462.149 535.516C401.852 557.527 329.348 567.577 243.001 569.983C238.579 570.106 228.653 570.211 224.231 570.211H-819.691" stroke="#263E00" stroke-width="1.68" stroke-miterlimit="10"/>
<path d="M2753.15 590.549H1397.38C1387.82 590.549 1367.6 590.092 1358.07 589.522C1281.61 584.891 1214.8 572.274 1158.12 551.014C1150.27 548.076 1142.57 545.452 1135.2 542.561C1134.34 542.219 1133.48 541.896 1132.61 541.554C1057.72 512.43 1004.57 474.674 966.754 427.114C962.034 421.153 957.562 415.01 953.338 408.735C935.608 382.141 919.128 352.39 893.615 324.227C875.638 304.374 837.958 260.856 796.49 259.743C796.401 259.743 796.996 259.724 796.917 259.715C755.32 258.574 717.174 299.078 700.744 317.543C677.551 343.605 666.147 373.527 651.561 400.758C641.765 418.88 629.667 436.499 615.299 453.033C579.95 493.728 531.491 528.033 468.675 552.288C467.584 552.707 466.494 553.125 465.403 553.543C404.609 577.095 331.659 587.877 245.868 590.301C241.287 590.435 231.629 590.539 227.048 590.539H-819.641" stroke="#233900" stroke-width="1.71" stroke-miterlimit="10"/>
<path d="M2753.1 610.877H1393.92C1384.04 610.877 1364.38 610.421 1354.52 609.812C1278.44 605.134 1211.36 591.899 1154.31 569.241C1146.49 566.132 1138.78 563.308 1131.41 560.199C1130.55 559.838 1129.69 559.476 1128.84 559.115C1054.05 527.814 1000.91 486.435 964.175 435.643C959.594 429.273 955.27 422.741 951.215 416.075C934.19 387.846 918.483 356.773 893.704 327.203C876.42 306.571 838.949 261.36 797.461 260.343C797.382 260.343 798.007 260.323 797.927 260.323C756.321 259.278 718.393 301.769 702.557 321.09C679.87 348.768 668.854 379.973 654.704 408.783C645.214 427.96 633.296 446.653 619.037 464.253C583.945 507.553 535.149 544.377 471.966 570.239C470.875 570.686 469.775 571.133 468.674 571.58C407.385 596.672 333.988 608.186 248.752 610.639C244.013 610.772 234.623 610.877 229.883 610.877H-819.592" stroke="#203500" stroke-width="1.73" stroke-miterlimit="10"/>
<path d="M2753.05 631.205H1390.46C1380.25 631.205 1361.14 630.739 1350.96 630.102C1275.26 625.367 1207.92 611.533 1150.48 587.478C1142.67 584.207 1134.97 581.164 1127.61 577.846C1126.74 577.456 1125.88 577.076 1125.03 576.686C1050.35 543.198 997.214 498.206 961.566 444.181C957.124 437.411 952.95 430.48 949.063 423.425C932.741 393.57 917.788 361.166 893.762 330.189C877.163 308.777 839.91 261.873 798.393 260.951C798.323 260.951 798.978 260.941 798.908 260.932C757.292 259.981 719.602 304.45 704.332 324.627C682.17 353.912 671.52 386.401 657.817 416.788C648.625 437.031 636.904 456.789 622.735 475.444C587.891 521.349 538.768 560.703 475.228 588.172C474.127 588.647 473.017 589.122 471.916 589.598C410.131 616.23 336.288 628.486 251.608 630.958C246.709 631.101 237.577 631.205 232.688 631.205H-819.543" stroke="#1D3000" stroke-width="1.76" stroke-miterlimit="10"/>
<path d="M2753 651.534H1387C1376.46 651.534 1357.92 651.068 1347.4 650.402C1272.08 645.619 1204.46 631.186 1146.66 605.714C1138.85 602.272 1131.17 599.02 1123.79 595.493C1122.93 595.084 1122.07 594.675 1121.21 594.266C1046.65 558.602 993.516 509.977 958.96 452.72C954.647 445.55 950.631 438.22 946.912 430.784C931.295 399.294 917.076 365.559 893.823 333.184C877.889 310.992 840.873 262.396 799.336 261.569C799.276 261.569 799.961 261.56 799.891 261.55C758.255 260.694 720.833 307.122 706.118 328.183C684.521 359.065 674.189 392.847 660.932 424.813C652.037 446.111 640.466 466.915 626.445 486.663C591.759 535.117 542.458 577.161 478.492 606.132C477.381 606.636 476.27 607.131 475.16 607.635C412.879 635.817 338.59 648.795 254.465 651.296C249.408 651.448 240.543 651.553 235.496 651.553H-819.502" stroke="#1A2B00" stroke-width="1.78" stroke-miterlimit="10"/>
<path d="M2752.96 671.862H1383.55C1372.68 671.862 1354.7 671.386 1343.85 670.692C1268.91 665.862 1201.01 650.83 1142.84 623.941C1135.04 620.337 1127.36 616.867 1119.99 613.13C1119.13 612.693 1118.28 612.265 1117.42 611.828C1042.97 573.976 989.837 521.739 956.371 461.248C952.197 453.67 948.32 445.95 944.78 438.125C929.866 405.008 916.361 369.942 893.902 336.16C878.622 313.179 841.854 262.9 800.287 262.159C800.228 262.159 800.952 262.149 800.892 262.139C759.246 261.379 722.101 309.756 707.912 331.701C686.91 364.18 676.876 399.265 664.054 432.81C655.457 455.163 644.084 477.041 630.152 497.845C595.725 548.913 546.086 593.468 481.753 624.046C480.642 624.578 479.522 625.101 478.401 625.634C415.635 655.356 340.89 669.066 257.32 671.586C252.104 671.748 243.507 671.852 238.291 671.852H-819.453" stroke="#172600" stroke-width="1.8" stroke-miterlimit="10"/>
<path d="M2752.91 692.19H1380.09C1368.89 692.19 1351.46 691.715 1340.29 690.983C1265.73 686.105 1197.53 670.483 1139.02 642.178C1131.24 638.412 1123.56 634.733 1116.19 630.768C1115.34 630.311 1114.48 629.855 1113.62 629.389C1039.28 589.351 986.158 533.5 953.773 469.777C949.727 461.8 946.009 453.68 942.637 445.465C928.428 410.713 915.627 374.316 893.971 339.136C879.335 315.356 842.825 263.404 801.238 262.758C801.189 262.758 801.933 262.758 801.883 262.748C760.227 262.082 723.38 312.399 709.706 335.247C689.319 369.305 679.562 405.702 667.187 440.825C658.898 464.234 647.703 487.196 633.88 509.045C599.71 562.728 549.735 609.784 485.045 641.987C483.924 642.548 482.794 643.1 481.673 643.661C418.411 674.933 343.219 689.366 260.195 691.914C254.83 692.076 246.491 692.19 241.117 692.19H-819.404" stroke="#142100" stroke-width="1.83" stroke-miterlimit="10"/>
<path d="M2752.86 712.518H1376.64C1365.11 712.518 1348.24 712.043 1336.74 711.273C1262.56 706.338 1194.06 690.136 1135.2 660.405C1127.42 656.478 1119.76 652.579 1112.4 648.405C1111.54 647.92 1110.68 647.436 1109.83 646.951C1035.59 604.735 982.48 545.262 951.186 478.306C947.279 469.92 943.709 461.41 940.506 452.805C927.001 416.418 914.884 378.68 894.051 342.102C880.05 317.524 843.808 263.908 802.191 263.347C802.152 263.347 802.925 263.347 802.886 263.338C761.21 262.767 724.67 315.014 711.502 338.765C691.75 374.392 682.25 412.11 670.312 448.821C662.32 473.285 651.323 497.322 637.59 520.236C603.688 576.534 553.365 626.09 488.308 659.92C487.178 660.509 486.047 661.089 484.907 661.679C421.158 694.501 345.511 709.666 263.042 712.233C257.518 712.404 249.447 712.518 243.914 712.518H-819.363" stroke="#111D00" stroke-width="1.85" stroke-miterlimit="10"/>
<path d="M2752.82 732.856H1373.19C1361.33 732.856 1345.02 732.381 1333.2 731.582C1259.4 726.6 1190.58 709.818 1131.39 678.66C1123.62 674.562 1115.98 670.455 1108.6 666.071C1107.75 665.558 1106.88 665.054 1106.03 664.541C1031.9 620.138 978.791 557.052 948.587 486.863C944.819 478.078 941.398 469.168 938.364 460.174C925.563 422.161 914.11 383.073 894.12 345.107C880.743 319.72 844.779 264.44 803.143 263.975C803.103 263.975 803.916 263.975 803.877 263.965C762.191 263.49 725.968 317.648 713.296 342.331C694.198 379.517 684.927 418.576 673.435 456.856C665.74 482.375 654.942 507.486 641.307 531.456C607.663 590.378 557.004 642.425 491.579 677.871C490.449 678.489 489.299 679.097 488.159 679.706C423.924 714.068 347.821 729.966 265.907 732.561C260.225 732.742 252.421 732.856 246.73 732.856H-819.314" stroke="#0F1800" stroke-width="1.88" stroke-miterlimit="10"/>
<path d="M2752.77 753.184H1369.73C1357.54 753.184 1341.79 752.7 1329.64 751.872C1256.21 746.843 1187.08 729.481 1127.58 696.887C1119.8 692.627 1112.16 688.32 1104.8 683.709C1103.95 683.176 1103.08 682.644 1102.24 682.102C1028.22 635.522 975.121 568.813 945.998 495.392C942.359 486.197 939.097 476.899 936.222 467.524C924.124 427.875 913.336 387.427 894.179 348.093C881.427 321.898 845.74 264.954 804.074 264.583C804.044 264.583 804.887 264.583 804.857 264.583C763.162 264.203 727.267 320.253 715.07 345.877C696.637 384.604 687.594 425.013 676.547 464.871C669.15 491.455 658.54 517.631 645.005 542.666C611.619 604.202 560.622 658.75 494.841 695.822C493.701 696.469 492.551 697.106 491.4 697.743C426.69 733.655 350.12 750.275 268.762 752.899C262.921 753.089 255.385 753.194 249.535 753.194H-819.266" stroke="#0C1300" stroke-width="1.9" stroke-miterlimit="10"/>
<path d="M2752.72 773.513H1366.27C1353.75 773.513 1338.56 773.028 1326.08 772.163C1253.03 767.076 1183.57 749.153 1123.75 715.114C1115.99 710.693 1108.35 706.167 1100.99 701.346C1100.14 700.785 1099.29 700.234 1098.43 699.673C1024.52 650.906 971.424 580.584 943.402 503.93C939.901 494.336 936.788 484.638 934.081 474.873C922.688 433.589 912.544 391.782 894.249 351.078C882.112 324.066 846.703 265.467 805.027 265.192C805.007 265.192 805.88 265.192 805.85 265.192C764.134 264.906 728.586 322.839 716.866 349.414C699.117 389.671 690.282 431.44 679.672 472.886C672.582 500.526 662.161 527.786 648.725 553.866C615.596 618.017 564.262 675.066 498.114 713.754C496.964 714.429 495.814 715.095 494.654 715.761C429.527 753.337 352.432 770.698 271.628 773.208C265.629 773.418 258.351 773.513 252.352 773.513H-819.215" stroke="#090E00" stroke-width="1.93" stroke-miterlimit="10"/>
<path d="M2752.67 793.841H1362.81C1349.96 793.841 1335.33 793.366 1322.52 792.453C1249.86 787.318 1180.05 768.825 1119.92 733.351C1112.16 728.768 1104.54 724.014 1097.17 718.993C1096.32 718.413 1095.47 717.824 1094.62 717.244C1020.81 666.29 967.725 592.355 940.783 512.468C937.412 502.466 934.457 492.378 931.919 482.223C921.23 439.313 911.73 396.127 894.298 354.064C882.766 326.224 847.655 265.981 805.959 265.791C805.949 265.791 806.841 265.791 806.831 265.791C765.106 265.6 729.895 325.406 718.65 352.951C701.585 394.73 692.959 437.877 682.785 480.892C675.993 509.587 665.77 537.921 652.423 565.058C619.552 631.823 567.881 691.372 501.366 731.687C500.206 732.39 499.046 733.084 497.886 733.778C432.263 772.866 354.722 790.951 274.474 793.527C268.316 793.736 261.306 793.841 255.148 793.841H-819.176" stroke="#060A00" stroke-width="1.95" stroke-miterlimit="10"/>
<path d="M2752.63 814.169H1359.36C1346.18 814.169 1332.11 813.703 1318.97 812.753C1246.67 807.647 1176.53 788.507 1116.1 751.587C1108.34 746.843 1100.74 741.87 1093.38 736.64C1092.52 736.032 1091.67 735.423 1090.82 734.815C1017.12 681.684 964.045 604.126 938.185 521.007C934.952 510.605 932.146 500.117 929.776 489.573C919.791 445.027 910.916 400.473 894.367 357.049C883.44 328.373 848.625 266.494 806.9 266.399H807.822C766.087 266.304 731.223 327.964 720.434 356.488C704.064 399.759 695.635 444.305 685.908 488.907C679.413 518.658 669.378 548.067 656.141 576.268C623.538 645.648 571.52 707.698 504.648 749.638C503.487 750.37 502.317 751.093 501.147 751.806C435.019 792.405 357.042 811.203 277.349 813.855C271.032 814.074 264.289 814.179 257.973 814.179H-819.127" stroke="#030500" stroke-width="1.98" stroke-miterlimit="10"/>
<path d="M2752.58 834.498H1355.91C1270.25 834.498 1184.37 815.367 1112.3 769.824C1015.83 708.858 949.361 604.858 927.655 496.913C918.374 450.732 910.124 404.789 894.457 360.025C884.125 330.512 849.618 266.998 807.873 266.998H808.835C767.079 266.998 732.582 330.503 722.25 360.025C706.583 404.789 698.333 450.742 689.052 496.913C667.347 604.858 600.881 708.858 504.411 769.824C432.333 815.377 346.453 834.498 260.8 834.498H-819.076" stroke="black" stroke-width="2" stroke-miterlimit="10"/>
</g>
</svg>
