<svg width="109" height="87" viewBox="0 0 109 87" fill="none" xmlns="http://www.w3.org/2000/svg">
<g id="bullbitcoin_logo" clip-path="url(#clip0_76_1144)">
<path id="Vector" d="M62.2327 71.359C62.2327 72.3103 61.4541 73.0822 60.4943 73.0822C59.5345 73.0822 58.7559 72.3103 58.7559 71.359C58.7559 70.4076 59.5345 69.6357 60.4943 69.6357C61.4541 69.6357 62.2327 70.4076 62.2327 71.359Z" fill="white"/>
<path id="Vector_2" d="M95.1263 71.359C95.1263 72.3103 94.3476 73.0822 93.3878 73.0822C92.4281 73.0822 91.6494 72.3103 91.6494 71.359C91.6494 70.4076 92.4281 69.6357 93.3878 69.6357C94.3476 69.6357 95.1263 70.4076 95.1263 71.359Z" fill="white"/>
<path id="Vector_3" d="M7.84306 79.0863H3.76861V83.4123H7.78873C8.50403 83.4123 9.06539 83.3136 9.46378 83.1251C10.1881 82.7751 10.5503 82.093 10.5503 81.0967C10.5503 80.2531 10.1972 79.6697 9.49095 79.3555C9.10161 79.176 8.5493 79.0863 7.83401 79.0773L7.84306 79.0863ZM9.54527 75.9898C9.98893 75.7296 10.2153 75.2539 10.2153 74.5718C10.2153 73.8179 9.9165 73.3153 9.32797 73.0729C8.82093 72.9024 8.16901 72.8216 7.37223 72.8216H3.76861V76.4027H7.78873C8.50403 76.4027 9.09256 76.2681 9.54527 75.9988M7.92455 86.2395H0.5V70.0034H8.45875C10.4688 70.0303 11.8903 70.6048 12.7233 71.7356C13.2304 72.4267 13.4749 73.2524 13.4749 74.2128C13.4749 75.1731 13.2213 75.9988 12.7233 76.6002C12.4427 76.9412 12.0262 77.2464 11.4829 77.5246C12.3159 77.8298 12.9497 78.3054 13.3753 78.9517C13.8008 79.6068 14.0181 80.3967 14.0181 81.3301C14.0181 82.2635 13.7736 83.152 13.2847 83.9149C12.9769 84.4175 12.5875 84.8483 12.1167 85.1894C11.5916 85.5843 10.9668 85.8535 10.2515 86.0061C9.53622 86.1497 8.75755 86.2305 7.92455 86.2305" fill="white"/>
<path id="Vector_4" d="M23.2442 84.5344C23.2442 84.5344 23.1446 84.678 23.0178 84.8665C22.9001 85.046 22.7553 85.2076 22.5923 85.3512C22.0943 85.791 21.6144 86.0961 21.1526 86.2577C20.6909 86.4192 20.1476 86.5 19.5229 86.5C17.7301 86.5 16.5259 85.8628 15.9011 84.5793C15.5571 83.8703 15.376 82.8381 15.376 81.4649V74.231H18.6174V81.4649C18.6174 82.147 18.6989 82.6586 18.8619 83.0087C19.1516 83.619 19.713 83.9241 20.5641 83.9241C21.6416 83.9241 22.384 83.4933 22.7824 82.6227C22.9907 82.156 23.0903 81.5367 23.0903 80.7649V74.231H26.3045V86.2397H23.2261V84.5434H23.2442V84.5344Z" fill="white"/>
<path id="Vector_5" d="M28.5957 69.9946H31.7647V86.2307H28.5957V69.9946Z" fill="white"/>
<path id="Vector_6" d="M34.0645 69.9946H37.2335V86.2307H34.0645V69.9946Z" fill="white"/>
<path id="Vector_7" d="M51.1683 79.0863H47.0938V83.4123H51.1139C51.8292 83.4123 52.3906 83.3136 52.789 83.1251C53.5133 82.7751 53.8755 82.093 53.8755 81.0967C53.8755 80.2531 53.5224 79.6697 52.8161 79.3555C52.4268 79.176 51.8745 79.0863 51.1592 79.0773H51.1683V79.0863ZM52.8705 75.9898C53.3141 75.7296 53.5405 75.2539 53.5405 74.5718C53.5405 73.8179 53.2417 73.3153 52.6532 73.0729C52.1461 72.9024 51.4942 72.8216 50.6974 72.8216H47.0938V76.4027H51.1139C51.8292 76.4027 52.4178 76.2681 52.8705 75.9988M51.2497 86.2395H43.8252V70.0034H51.7839C53.794 70.0303 55.2155 70.6048 56.0485 71.7356C56.5556 72.4267 56.8 73.2524 56.8 74.2128C56.8 75.1731 56.5465 75.9988 56.0485 76.6002C55.7679 76.9412 55.3514 77.2464 54.8081 77.5246C55.6411 77.8298 56.2749 78.3054 56.7004 78.9517C57.126 79.6068 57.3433 80.3967 57.3433 81.3301C57.3433 82.2635 57.0988 83.152 56.6099 83.9149C56.3021 84.4175 55.9127 84.8483 55.4419 85.1894C54.9167 85.5843 54.292 85.8535 53.5767 86.0061C52.8614 86.1497 52.0827 86.2305 51.2497 86.2305" fill="white"/>
<path id="Vector_8" d="M62.3412 86.2307H59.127V74.231H62.3412V86.2307Z" fill="white"/>
<path id="Vector_9" d="M68.9688 83.9957V86.3382L68.0362 86.3921C66.5423 86.4459 65.5191 86.1857 64.9668 85.6202C64.6137 85.2612 64.4326 84.7048 64.4326 83.9598V70.9907H67.5654V74.3385H68.9598V76.5733H67.5654V82.9187C67.5654 83.4123 67.6288 83.7175 67.7556 83.8342C67.8823 83.9509 68.1721 84.0137 68.6519 84.0137C68.7606 84.0137 68.8602 84.0137 68.9688 83.9957Z" fill="white"/>
<path id="Vector_10" d="M95.0268 86.2307H91.8125V74.231H95.0268V86.2307Z" fill="white"/>
<path id="Vector_11" d="M103.221 76.5466C102.144 76.5466 101.41 76.9954 101.012 77.9019C100.804 78.3776 100.704 78.9879 100.704 79.7328V86.2308H97.5439V74.249H100.595V75.9992C101.003 75.3799 101.392 74.9401 101.754 74.6708C102.406 74.1862 103.23 73.9438 104.235 73.9438C105.485 73.9438 106.508 74.267 107.305 74.9221C108.101 75.5683 108.5 76.6543 108.5 78.1532V86.2398H105.258V78.934C105.258 78.3058 105.177 77.8211 105.005 77.4801C104.697 76.8608 104.099 76.5556 103.23 76.5556H103.221V76.5466Z" fill="white"/>
<path id="Vector_12" d="M84.2888 83.5562C82.5141 83.5562 81.0835 82.1291 81.0835 80.379C81.0835 78.6288 82.5232 77.2018 84.2888 77.2018C86.0544 77.2018 87.494 78.6288 87.494 80.379C87.494 82.1291 86.0544 83.5562 84.2888 83.5562ZM84.2888 74.2759C80.8844 74.2759 78.1318 77.0133 78.1318 80.379C78.1318 83.7447 80.8844 86.4821 84.2888 86.4821C87.6932 86.4821 90.4457 83.7537 90.4457 80.379C90.4457 77.0043 87.6932 74.2759 84.2888 74.2759Z" fill="white"/>
<path id="Vector_13" d="M76.6833 83.4483C76.4207 83.5201 76.14 83.556 75.8503 83.556C74.0757 83.556 72.6451 82.129 72.6451 80.3788C72.6451 78.6286 74.0847 77.2016 75.8503 77.2016C76.1219 77.2016 76.3845 77.2375 76.629 77.3003C76.6833 77.3093 77.0545 77.426 77.2266 77.1926L78.5666 75.3258C78.7024 75.1463 78.5666 74.904 78.467 74.8591C77.6702 74.4911 76.7829 74.2847 75.8503 74.2847C72.4549 74.2847 69.6934 77.0131 69.6934 80.3878C69.6934 83.7624 72.4459 86.4909 75.8503 86.4909C76.7557 86.4909 77.6068 86.3024 78.3765 85.9524C78.5123 85.8896 78.7115 85.6562 78.5394 85.4139L77.2809 83.6637C77.0907 83.3855 76.801 83.4304 76.6833 83.4663V83.4483Z" fill="white"/>
<path id="Vector_14" fill-rule="evenodd" clip-rule="evenodd" d="M52.9152 30.145V34.4082H56.4917C57.6778 34.4082 58.6466 33.4478 58.6466 32.281C58.6466 31.1143 57.6778 30.1539 56.4917 30.1539H52.9152V30.145ZM52.9152 23.7816V27.8742H56.1114C57.2522 27.8742 58.1667 26.9498 58.1667 25.8369C58.1667 24.724 57.2251 23.7995 56.1114 23.7995H52.9152V23.7816ZM50.7059 21.4032H46.5862V23.7457H47.709C48.5872 23.7457 49.2935 24.4457 49.2935 25.3163V32.9273C49.2935 33.7979 48.5872 34.4979 47.709 34.4979H46.5862V36.8763H50.715V39.5868H52.9243V36.8943H54.4907V39.6048H56.6999V36.8943H58.6375C61.046 36.8943 63.0108 34.9467 63.0108 32.5593C63.0108 30.7283 61.8609 29.1667 60.2492 28.5205C61.218 27.8024 61.8609 26.6446 61.8609 25.3522C61.8609 23.1892 60.0772 21.4121 57.886 21.4121H56.6999V18.8093H54.4907V21.4121H52.9061V18.8093H50.6969V21.4121H50.7059V21.4032ZM25.39 0.5L27.9253 10.2111L41.9323 14.7974L46.1878 8.5238L54.4997 12.0869L62.8116 8.5238L67.0671 14.7974L81.0742 10.2111L83.6003 0.5L89.223 14.1602L75.3971 24.3291L85.1486 31.3656L75.3971 33.2952L70.6798 32.4606L70.707 37.9713L64.4142 45.5643L63.219 51.102L54.4997 56.0652L45.7804 51.084L44.5852 45.5463L38.2925 37.9534L38.3196 32.4426L33.6023 33.2773L23.8508 31.3476L33.6023 24.3111L19.7764 14.1422L25.39 0.5Z" fill="white"/>
</g>
<defs>
<clipPath id="clip0_76_1144">
<rect width="108" height="86" fill="white" transform="translate(0.5 0.5)"/>
</clipPath>
</defs>
</svg>
